<svg width="1200" height="800" viewBox="0 0 1200 800" xmlns="http://www.w3.org/2000/svg">
  <!-- Browser Frame -->
  <rect x="0" y="0" width="1200" height="800" fill="#f8fafc" rx="8" />
  <rect x="0" y="0" width="1200" height="40" fill="#e2e8f0" rx="8" />
  <circle cx="20" cy="20" r="6" fill="#ef4444" />
  <circle cx="40" cy="20" r="6" fill="#f59e0b" />
  <circle cx="60" cy="20" r="6" fill="#22c55e" />

  <!-- Content -->
  <g transform="translate(0, 40)">
    <!-- Navbar -->
    <rect width="1200" height="60" fill="#ffffff" />
    
    <!-- Title -->
    <text x="600" y="120" text-anchor="middle" font-family="sans-serif" font-size="32" fill="#1e293b">Frequently Asked Questions</text>
    
    <!-- Accordion -->
    <g transform="translate(300, 160)">
        <rect width="600" height="1" fill="#cbd5e1" />
        <rect y="20" width="600" height="40" fill="transparent" />
        <text x="0" y="45" font-family="sans-serif" fill="#334155">What do I get if I register?</text>
        <text x="580" y="45" font-family="sans-serif" fill="#334155">v</text>
        <rect y="70" width="600" height="1" fill="#cbd5e1" />

        <rect y="90" width="600" height="40" fill="transparent" />
        <text x="0" y="115" font-family="sans-serif" fill="#334155">What is a Relationship Month?</text>
        <text x="580" y="115" font-family="sans-serif" fill="#334155">v</text>
        <rect y="140" width="600" height="1" fill="#cbd5e1" />
    </g>

    <!-- Form Section -->
    <rect y="350" width="1200" height="300" fill="white" />
    <text x="300" y="450" font-family="sans-serif" font-size="36" fill="#1e293b">We're here to help</text>
    <rect x="650" y="400" width="400" height="40" fill="#f8fafc" stroke="#e2e8f0" rx="4" />
    <rect x="650" y="460" width="400" height="40" fill="#f8fafc" stroke="#e2e8f0" rx="4" />
    <rect x="650" y="520" width="400" height="40" fill="#f8fafc" stroke="#e2e8f0" rx="4" />
    <rect x="650" y="580" width="150" height="40" fill="#84cc16" rx="4" />

    <!-- Green Banner -->
    <rect y="650" width="1200" height="150" fill="#86efac" />
    <text x="600" y="700" text-anchor="middle" font-family="sans-serif" font-size="28" font-weight="bold" fill="#0f172a">Try it free for 7 days</text>
    <rect x="500" y="730" width="200" height="40" fill="transparent" stroke="#0f172a" rx="4" />
  </g>
</svg>