<svg width="1200" height="800" viewBox="0 0 1200 800" xmlns="http://www.w3.org/2000/svg">
  <defs>
    <linearGradient id="heroGradient" x1="0%" y1="0%" x2="0%" y2="100%">
      <stop offset="0%" style="stop-color:#ecfeff;stop-opacity:1" />
      <stop offset="100%" style="stop-color:#ffffff;stop-opacity:1" />
    </linearGradient>
  </defs>
  <!-- Browser Frame -->
  <rect x="0" y="0" width="1200" height="800" fill="#f8fafc" />
  <rect x="0" y="0" width="1200" height="40" fill="#ffffff" stroke="#e2e8f0" />
  <circle cx="20" cy="20" r="5" fill="#cbd5e1" />
  <circle cx="40" cy="20" r="5" fill="#cbd5e1" />
  <circle cx="60" cy="20" r="5" fill="#cbd5e1" />
  
  <!-- Content -->
  <g transform="translate(0, 40)">
    <!-- Navbar -->
    <rect width="1200" height="60" fill="#ffffff" stroke-bottom="#e2e8f0" />
    <rect x="50" y="15" width="120" height="30" fill="#0ea5e9" rx="2" />
    <rect x="800" y="20" width="350" height="20" fill="#e2e8f0" rx="2" />
    
    <!-- Hero -->
    <rect y="60" width="1200" height="400" fill="url(#heroGradient)" />
    <text x="600" y="180" font-family="sans-serif" font-weight="bold" font-size="32" text-anchor="middle" fill="#1e293b">Relationships can be hard</text>
    <rect x="500" y="220" width="200" height="40" fill="#06b6d4" rx="2" />
    
    <!-- Two Columns -->
    <g transform="translate(200, 300)">
        <rect width="350" height="120" fill="white" stroke="#e2e8f0" rx="4"/>
        <text x="175" y="60" text-anchor="middle" fill="#334155" font-family="sans-serif">Business</text>
    </g>
    <g transform="translate(650, 300)">
        <rect width="350" height="120" fill="white" stroke="#e2e8f0" rx="4"/>
        <text x="175" y="60" text-anchor="middle" fill="#334155" font-family="sans-serif">Personal</text>
    </g>

    <!-- Testimonials -->
    <rect y="460" width="1200" height="300" fill="#f1f5f9" />
    <circle cx="600" cy="520" r="30" fill="#fef08a" />
    <rect x="200" y="580" width="250" height="60" fill="white" stroke="#e2e8f0" rx="2" />
    <rect x="475" y="580" width="250" height="60" fill="white" stroke="#e2e8f0" rx="2" />
    <rect x="750" y="580" width="250" height="60" fill="white" stroke="#e2e8f0" rx="2" />
  </g>
</svg>