<svg width="1200" height="800" viewBox="0 0 1200 800" xmlns="http://www.w3.org/2000/svg">
  <!-- Browser Frame -->
  <rect x="0" y="0" width="1200" height="800" fill="#f8fafc" />
  <rect x="0" y="0" width="1200" height="40" fill="#ffffff" stroke="#e2e8f0" />
  <circle cx="20" cy="20" r="5" fill="#cbd5e1" />
  <circle cx="40" cy="20" r="5" fill="#cbd5e1" />
  <circle cx="60" cy="20" r="5" fill="#cbd5e1" />

  <!-- Content -->
  <g transform="translate(0, 40)">
    <!-- Navbar -->
    <rect width="1200" height="60" fill="#ffffff" stroke-bottom="#e2e8f0" />
    
    <!-- Main Container -->
    <rect x="200" y="100" width="800" height="600" fill="white" stroke="#e2e8f0" rx="4" />
    
    <!-- Title -->
    <text x="600" y="160" text-anchor="middle" font-family="sans-serif" font-weight="bold" font-size="32" fill="#1e293b">How AlignSynch Works</text>
    
    <!-- Placeholder Box -->
    <rect x="250" y="200" width="700" height="60" fill="#ecfeff" stroke="#22d3ee" stroke-width="0" rx="2" />
    <rect x="250" y="200" width="5" height="60" fill="#06b6d4" />

    <!-- Process Steps -->
    <g transform="translate(250, 350)">
        <!-- Step 1 -->
        <rect x="0" y="0" width="200" height="200" fill="#f8fafc" stroke="#e2e8f0" rx="4" />
        <circle cx="100" cy="50" r="25" fill="#dcfce7" />
        <text x="100" y="55" text-anchor="middle" font-family="sans-serif" font-weight="bold" fill="#15803d">1</text>
        <text x="100" y="100" text-anchor="middle" font-family="sans-serif" font-weight="bold" fill="#334155">Express</text>

        <!-- Step 2 -->
        <rect x="250" y="0" width="200" height="200" fill="#f8fafc" stroke="#e2e8f0" rx="4" />
        <circle cx="100" cy="50" r="25" fill="#e0f2fe" />
        <text x="100" y="55" text-anchor="middle" font-family="sans-serif" font-weight="bold" fill="#0284c7">2</text>
        <text x="100" y="100" text-anchor="middle" font-family="sans-serif" font-weight="bold" fill="#334155">Invite</text>

        <!-- Step 3 -->
        <rect x="500" y="0" width="200" height="200" fill="#f8fafc" stroke="#e2e8f0" rx="4" />
        <circle cx="100" cy="50" r="25" fill="#f3e8ff" />
        <text x="100" y="55" text-anchor="middle" font-family="sans-serif" font-weight="bold" fill="#7e22ce">3</text>
        <text x="100" y="100" text-anchor="middle" font-family="sans-serif" font-weight="bold" fill="#334155">Synch</text>
    </g>
  </g>
</svg>