<svg width="1200" height="800" viewBox="0 0 1200 800" xmlns="http://www.w3.org/2000/svg">
  <!-- Browser Frame -->
  <rect x="0" y="0" width="1200" height="800" fill="#f8fafc" />
  <rect x="0" y="0" width="1200" height="40" fill="#ffffff" stroke="#e2e8f0" />
  <circle cx="20" cy="20" r="5" fill="#cbd5e1" />
  <circle cx="40" cy="20" r="5" fill="#cbd5e1" />
  <circle cx="60" cy="20" r="5" fill="#cbd5e1" />

  <!-- Content -->
  <g transform="translate(0, 40)">
    <!-- Navbar -->
    <rect width="1200" height="60" fill="#ffffff" stroke-bottom="#e2e8f0" />
    
    <!-- Title -->
    <text x="600" y="120" text-anchor="middle" font-family="sans-serif" font-weight="bold" font-size="36" fill="#1e293b">AlignSynch Pricing</text>
    <text x="600" y="160" text-anchor="middle" font-family="sans-serif" font-size="24" fill="#475569">Is your Relationship worth $1 per month?</text>

    <!-- Cards Container -->
    <g transform="translate(100, 220)">
        <!-- Basic -->
        <rect x="0" y="20" width="300" height="400" fill="white" stroke="#e2e8f0" rx="4" />
        <text x="150" y="80" text-anchor="middle" font-family="sans-serif" font-size="24" fill="#64748b">Basic</text>
        <text x="150" y="140" text-anchor="middle" font-family="sans-serif" font-size="48" fill="#334155">$6</text>
        <rect x="40" y="320" width="220" height="40" fill="white" stroke="#94a3b8" rx="2" />

        <!-- Essential (Highlighted) -->
        <rect x="350" y="0" width="300" height="440" fill="white" stroke="#22c55e" stroke-width="2" rx="4" />
        <text x="500" y="80" text-anchor="middle" font-family="sans-serif" font-size="24" fill="#1e293b" font-weight="bold">Essential</text>
        <text x="500" y="140" text-anchor="middle" font-family="sans-serif" font-size="48" fill="#1e293b">$36</text>
        <rect x="390" y="340" width="220" height="50" fill="#22c55e" rx="2" />
        <!-- Ribbon Mockup -->
        <polygon points="600,0 650,0 650,50" fill="#22c55e" />

        <!-- Max -->
        <rect x="700" y="20" width="300" height="400" fill="white" stroke="#e2e8f0" rx="4" />
        <text x="850" y="80" text-anchor="middle" font-family="sans-serif" font-size="24" fill="#64748b">Max</text>
        <text x="850" y="140" text-anchor="middle" font-family="sans-serif" font-size="48" fill="#334155">$60</text>
        <rect x="740" y="320" width="220" height="40" fill="white" stroke="#94a3b8" rx="2" />
    </g>

    <!-- Bottom CTA -->
    <text x="600" y="720" text-anchor="middle" font-family="sans-serif" font-weight="bold" font-size="24" fill="#1e293b">7 Day Free Trial</text>
    <rect x="500" y="740" width="200" height="40" fill="#334155" rx="2" />
  </g>
</svg>