<svg width="1200" height="800" viewBox="0 0 1200 800" xmlns="http://www.w3.org/2000/svg">
  <!-- Browser Frame -->
  <rect x="0" y="0" width="1200" height="800" fill="#f8fafc" />
  <rect x="0" y="0" width="1200" height="40" fill="#ffffff" stroke="#e2e8f0" />
  <circle cx="20" cy="20" r="5" fill="#cbd5e1" />
  <circle cx="40" cy="20" r="5" fill="#cbd5e1" />
  <circle cx="60" cy="20" r="5" fill="#cbd5e1" />

  <!-- Content -->
  <g transform="translate(0, 40)">
    <!-- Navbar -->
    <rect width="1200" height="60" fill="#ffffff" stroke-bottom="#e2e8f0" />
    <rect x="50" y="15" width="120" height="30" fill="#0ea5e9" rx="2" />
    
    <!-- Page Header -->
    <text x="100" y="120" font-family="sans-serif" font-size="28" fill="#1e293b" font-weight="500">AlignSynch Demo Templates</text>

    <!-- Card 1 -->
    <g transform="translate(100, 160)">
        <rect width="1000" height="250" fill="white" rx="4" stroke="#e2e8f0" />
        <!-- Image -->
        <rect x="0" y="0" width="250" height="250" fill="#e2e8f0" rx="4" />
        <!-- Text -->
        <rect x="280" y="30" width="400" height="24" fill="#334155" rx="2" />
        <rect x="280" y="70" width="600" height="10" fill="#94a3b8" rx="2" />
        <rect x="280" y="90" width="500" height="10" fill="#94a3b8" rx="2" />
        
        <!-- Badges -->
        <rect x="280" y="140" width="180" height="50" fill="#f0fdf4" rx="4" />
        <text x="370" y="170" text-anchor="middle" font-family="sans-serif" font-size="12" fill="#166534">INITIATOR</text>
        
        <rect x="480" y="140" width="180" height="50" fill="#faf5ff" rx="4" />
        <text x="570" y="170" text-anchor="middle" font-family="sans-serif" font-size="12" fill="#6b21a8">COUNTERPARTY</text>
        
        <rect x="680" y="140" width="180" height="50" fill="#eff6ff" rx="4" />
        <text x="770" y="170" text-anchor="middle" font-family="sans-serif" font-size="12" fill="#1e40af">COACH</text>

        <!-- Buttons -->
        <rect x="280" y="210" width="120" height="30" fill="#fbbf24" rx="2" />
        <rect x="410" y="210" width="100" height="30" fill="#6366f1" rx="2" />
        <rect x="850" y="210" width="130" height="30" fill="#14b8a6" rx="2" />
    </g>

    <!-- Card 2 -->
    <g transform="translate(100, 440)">
        <rect width="1000" height="250" fill="white" rx="4" stroke="#e2e8f0" />
        <rect x="0" y="0" width="250" height="250" fill="#e2e8f0" rx="4" />
        <rect x="280" y="30" width="300" height="24" fill="#334155" rx="2" />
        <rect x="280" y="70" width="600" height="10" fill="#94a3b8" rx="2" />
        
         <!-- Badges -->
        <rect x="280" y="140" width="180" height="50" fill="#f0fdf4" rx="4" />
        <rect x="480" y="140" width="180" height="50" fill="#faf5ff" rx="4" />
    </g>
  </g>
</svg>