<svg width="1200" height="800" viewBox="0 0 1200 800" xmlns="http://www.w3.org/2000/svg">
  <!-- Browser Frame -->
  <rect x="0" y="0" width="1200" height="800" fill="#f8fafc" />
  <rect x="0" y="0" width="1200" height="40" fill="#ffffff" stroke="#e2e8f0" />
  <circle cx="20" cy="20" r="5" fill="#cbd5e1" />
  <circle cx="40" cy="20" r="5" fill="#cbd5e1" />
  <circle cx="60" cy="20" r="5" fill="#cbd5e1" />

  <!-- Content -->
  <g transform="translate(0, 40)">
    <!-- Navbar -->
    <rect width="1200" height="60" fill="#ffffff" stroke-bottom="#e2e8f0" />
    
    <!-- Dark Header -->
    <rect y="60" width="1200" height="200" fill="#334155" />
    <rect x="100" y="100" width="600" height="30" fill="#ffffff" rx="2" />
    <rect x="100" y="150" width="80" height="20" fill="#facc15" rx="2" />
    <rect x="200" y="150" width="150" height="20" fill="#94a3b8" rx="2" />

    <!-- Main Grid -->
    <g transform="translate(100, 200)">
        <!-- Left Col -->
        <g>
            <!-- Roles -->
            <rect width="650" height="100" fill="white" stroke="#e2e8f0" rx="4" />
            <circle cx="50" cy="50" r="20" fill="#e2e8f0" />
            <circle cx="250" cy="50" r="20" fill="#e2e8f0" />
            <circle cx="450" cy="50" r="20" fill="#e2e8f0" />

            <!-- Details -->
            <rect y="120" width="650" height="150" fill="white" stroke="#e2e8f0" rx="4" />
            
            <!-- Aspect Chart Section -->
            <rect y="320" width="650" height="300" fill="white" stroke="#e2e8f0" rx="4" />
            <rect x="20" y="340" width="610" height="40" fill="#f8fafc" rx="2" />
            <rect x="20" y="390" width="610" height="40" fill="#f8fafc" rx="2" />
            
            <!-- Expanded Chart Area -->
            <rect x="20" y="440" width="610" height="160" fill="white" stroke="#cbd5e1" rx="2" />
            <!-- Sliders -->
            <line x1="40" y1="480" x2="300" y2="480" stroke="#e2e8f0" stroke-width="2" />
            <rect x="40" y="476" width="100" height="8" fill="#3b82f6" rx="4" />
            <line x1="340" y1="480" x2="600" y2="480" stroke="#e2e8f0" stroke-width="2" />
            <rect x="340" y="476" width="150" height="8" fill="#3b82f6" rx="4" />
        </g>
        
        <!-- Right Sidebar -->
        <g transform="translate(680, 0)">
            <rect width="320" height="400" fill="white" stroke="#e2e8f0" rx="4" />
            <rect width="320" height="150" fill="#f1f5f9" rx="4" />
            <rect x="20" y="170" width="280" height="40" fill="#06b6d4" rx="2" />
            <rect x="20" y="220" width="280" height="40" fill="#4ade80" rx="2" />
        </g>
    </g>
  </g>
</svg>